<?xml version="1.0" encoding="UTF-8" standalone="no"?>
<svg
   version="1.1"
   width="50"
   height="60"
   id="svg28"
   sodipodi:docname="main.svg"
   inkscape:version="1.3.2 (091e20e, 2023-11-25, custom)"
   xmlns:inkscape="http://www.inkscape.org/namespaces/inkscape"
   xmlns:sodipodi="http://sodipodi.sourceforge.net/DTD/sodipodi-0.dtd"
   xmlns="http://www.w3.org/2000/svg"
   xmlns:svg="http://www.w3.org/2000/svg">
  <defs
     id="defs28" />
  <sodipodi:namedview
     id="namedview28"
     pagecolor="#ffffff"
     bordercolor="#000000"
     borderopacity="0.25"
     inkscape:showpageshadow="2"
     inkscape:pageopacity="0.0"
     inkscape:pagecheckerboard="0"
     inkscape:deskcolor="#d1d1d1"
     inkscape:zoom="11.313709"
     inkscape:cx="-32.350135"
     inkscape:cy="30.449786"
     inkscape:window-width="3440"
     inkscape:window-height="1369"
     inkscape:window-x="1072"
     inkscape:window-y="201"
     inkscape:window-maximized="1"
     inkscape:current-layer="svg28" />
  <path
     id="path2"
     style="stroke-width:0.0834334;fill:#6c0202;fill-opacity:1"
     d="M 37.916016 0.15820312 C 37.754282 0.16045112 37.591432 0.16253737 37.429688 0.16210938 C 37.124078 0.16025838 36.819277 0.15992246 36.513672 0.16210938 C 36.180478 0.16472337 35.846872 0.1644285 35.513672 0.1640625 C 34.86019 0.1629335 34.208169 0.16523883 33.554688 0.16796875 C 32.787533 0.17133475 32.019116 0.171508 31.251953 0.171875 C 29.885281 0.17262127 28.519005 0.1753145 27.152344 0.1796875 C 25.821602 0.1839385 24.4909 0.18803913 23.160156 0.18945312 L 22.910156 0.18945312 C 22.579504 0.18978893 22.250577 0.19102362 21.919922 0.19140625 C 20.492297 0.19289125 19.064349 0.19480363 17.636719 0.19726562 C 17.406884 0.19763885 17.1771 0.1968831 16.947266 0.19726562 C 16.064795 0.19875062 15.181297 0.200297 14.298828 0.203125 C 14.030992 0.20387138 13.76393 0.20664525 13.496094 0.20703125 C 13.183746 0.20740448 12.870943 0.20786538 12.558594 0.20898438 C 12.445038 0.20935771 12.332296 0.21019908 12.21875 0.2109375 L 11.896484 0.2109375 L 11.605469 0.2109375 C 10.858741 0.2131682 10.298749 0.465012 9.7519531 0.9765625 C 8.8617964 1.9190143 8.6083336 3.1155708 8.6132812 4.3789062 C 8.6160612 4.5488969 8.6183206 4.7186588 8.6191406 4.8886719 C 8.619933 5.2300237 8.5058924 5.6200685 8.6386719 5.9121094 L 8.7109375 6.0410156 L 8.8847656 6.2070312 C 9.1311999 6.3558376 9.3389088 6.4611132 9.71875 6.4609375 L 9.9433594 6.453125 C 10.183269 6.451285 10.424201 6.4503825 10.664062 6.4453125 C 10.83074 6.4416125 10.997359 6.4377469 11.164062 6.4355469 C 11.549522 6.4316169 11.934902 6.4274839 12.320312 6.4199219 L 12.634766 6.4140625 C 12.486239 6.9665932 12.295909 7.4626797 12.035156 7.9707031 C 11.88329 8.2604594 11.735108 8.5289741 11.695312 8.8574219 C 11.690613 9.2168854 11.719316 9.4109338 11.951172 9.6835938 C 12.282838 9.8816509 12.282348 9.8800478 12.951172 9.8886719 L 13.25 9.8886719 C 13.583177 9.8914219 13.916817 9.8926781 14.25 9.8925781 C 14.548419 9.8924937 14.84612 9.8944544 15.144531 9.8964844 C 15.708133 9.9001444 16.272327 9.9031769 16.835938 9.9042969 C 17.482558 9.9053169 18.128777 9.9067963 18.775391 9.9101562 C 20.112484 9.9170762 21.449998 9.9226903 22.787109 9.9257812 L 22.953125 9.9257812 C 22.785135 10.027502 22.61693 10.130227 22.449219 10.232422 L 22.242188 10.359375 C 20.756735 11.25867 19.362503 12.378016 18.566406 13.964844 L 18.458984 14.191406 L 18.355469 14.398438 C 17.976074 15.259356 17.964253 16.382351 18.298828 17.259766 C 19.040541 18.759002 20.564716 19.377113 22.042969 19.925781 C 22.861922 20.22897 23.752508 20.491824 24.451172 21.035156 C 24.897271 21.467846 25.140295 21.923887 25.169922 22.550781 C 25.126202 23.398543 24.705863 23.91806 24.144531 24.513672 C 23.66786 25.018974 23.238422 25.540621 22.898438 26.150391 C 22.488818 27.061388 22.435564 28.191875 22.787109 29.132812 C 23.157255 29.883115 23.790488 30.682012 24.601562 30.925781 C 24.693712 30.933581 24.809726 30.932934 24.921875 30.833984 C 25.060495 30.6811 25.061814 30.629212 25.027344 30.208984 C 25.015104 30.089001 25.002137 29.969815 24.992188 29.849609 L 24.978516 29.667969 C 24.939226 29.208262 24.930712 28.760537 24.982422 28.300781 C 25.149778 27.577541 25.647223 26.988031 26.230469 26.560547 C 26.734221 26.198698 27.232806 25.822872 27.703125 25.417969 C 28.549773 24.606639 29.268844 23.618678 29.328125 22.417969 C 29.343435 21.460312 29.120622 20.662008 28.445312 19.957031 L 28.279297 19.794922 C 27.34093 18.855279 26.272728 18.309406 25.072266 17.792969 C 24.781331 17.667908 24.490914 17.541897 24.201172 17.414062 L 23.982422 17.318359 C 23.847501 17.260589 23.7143 17.20201 23.580078 17.142578 C 22.816047 16.782879 22.143821 16.245378 21.849609 15.435547 C 21.686412 14.78913 21.700235 14.132669 22.011719 13.537109 L 22.121094 13.355469 C 22.860539 12.097803 24.161234 11.333963 25.443359 10.712891 C 25.600891 10.637571 25.759356 10.563469 25.916016 10.486328 C 26.020796 10.434618 26.125327 10.382963 26.230469 10.332031 L 26.382812 10.257812 C 27.071978 9.9245612 27.696149 9.823092 28.457031 9.8242188 L 28.746094 9.828125 C 29.014465 9.829145 29.282418 9.8301013 29.550781 9.8320312 C 29.89934 9.8347812 30.247138 9.8350275 30.595703 9.8359375 C 31.464564 9.8386875 32.334276 9.8444694 33.203125 9.8496094 C 33.88526 9.8537794 34.56785 9.857545 35.25 9.859375 C 35.601281 9.8601215 35.95147 9.8600213 36.302734 9.8632812 C 36.524479 9.8651112 36.746993 9.8664775 36.96875 9.8671875 L 37.279297 9.8671875 C 37.466111 9.8693275 37.65302 9.8710938 37.839844 9.8710938 C 38.692774 9.8474688 39.502043 9.6165528 40.107422 8.9902344 L 40.263672 8.7558594 C 40.400949 8.5707389 40.522644 8.3862541 40.636719 8.1855469 C 41.40468 6.5747807 41.477871 4.2692742 40.945312 2.5703125 L 40.847656 2.3144531 C 40.642457 1.7791269 40.366516 1.3223394 39.96875 0.90820312 C 39.367695 0.3683736 38.70997 0.16671255 37.916016 0.15820312 z M 38.339844 2.0058594 C 38.669505 2.0787493 38.781618 2.1953082 38.984375 2.4589844 C 39.710411 3.6491015 39.643687 5.229095 39.347656 6.546875 C 39.191529 7.0879551 39.013088 7.6141787 38.515625 7.9179688 C 38.234744 7.9336406 38.235284 7.9332972 37.933594 7.8339844 C 37.351715 7.2967739 37.133049 6.4858979 37.091797 5.7148438 C 37.052741 4.3732031 37.087872 3.2809803 37.929688 2.1894531 C 38.101339 2.0639914 38.100573 2.0633653 38.339844 2.0058594 z M 14.048828 2.0644531 L 35.9375 2.0644531 L 35.603516 3.1503906 C 35.321365 4.4973387 35.319607 5.8779934 35.689453 7.2050781 C 35.770403 7.5004451 35.770296 7.5000954 35.853516 8.0019531 L 14.048828 8.0019531 L 14.380859 6.5800781 C 14.577779 4.9968 14.431937 3.6046318 14.048828 2.0644531 z M 11.505859 2.1152344 C 11.591199 2.1148612 11.685739 2.1258474 11.800781 2.1464844 C 12.383683 2.4628333 12.528422 3.0428865 12.716797 3.6523438 C 12.809017 4.0116242 12.800781 4.2619022 12.800781 4.65625 L 10.220703 4.65625 C 10.470948 2.7699702 10.469956 2.770862 10.953125 2.3046875 C 11.174843 2.1736052 11.318143 2.116093 11.505859 2.1152344 z M 8.2695312 12.435547 C 7.8766577 12.435547 7.7471418 12.69681 7.6328125 13.046875 C 7.5068572 13.61508 7.3755308 14.161182 7.0957031 14.675781 C 6.5353664 15.525771 5.7812512 15.885283 4.8203125 16.121094 C 4.5036716 16.191994 4.5048453 16.192046 4.2285156 16.283203 C 3.9608217 16.417332 3.8573661 16.547847 3.8535156 16.826172 C 3.8599356 17.042125 3.8533442 17.051246 4.0253906 17.224609 C 4.2282528 17.370983 4.228846 17.370286 4.4785156 17.412109 C 5.0685469 17.468229 5.6628066 17.683729 6.1738281 17.982422 C 6.9797622 18.535829 7.3404974 19.373962 7.5722656 20.296875 C 7.6185076 20.493052 7.6369475 20.706743 7.7226562 20.882812 C 7.8809919 21.106487 8.0738853 21.159651 8.3886719 21.134766 C 8.6097961 21.070706 8.6304411 20.975529 8.7910156 20.419922 C 8.9233224 19.945734 9.0477502 19.457827 9.2871094 19.025391 C 9.882535 18.133587 10.612035 17.691835 11.634766 17.4375 C 11.916027 17.37407 12.198045 17.372517 12.376953 17.164062 C 12.491493 16.974595 12.523228 16.830254 12.466797 16.617188 C 12.364062 16.389414 12.209182 16.363665 11.966797 16.283203 C 11.419417 16.146727 10.903439 16.001613 10.40625 15.730469 C 9.5268492 15.180775 9.1183194 14.436136 8.8730469 13.443359 C 8.8283702 13.24509 8.7792286 13.04869 8.7226562 12.853516 C 8.6185948 12.613919 8.549953 12.501355 8.2695312 12.435547 z M 32.699219 12.630859 C 32.398953 12.653619 32.385803 12.67851 32.154297 13.125 C 31.870258 13.810971 31.617224 14.332427 30.9375 14.667969 C 30.662484 14.791901 30.388381 14.8967 30.193359 15.111328 C 30.059535 15.320306 30.070353 15.4398 30.111328 15.613281 C 30.239237 15.867437 30.27763 15.86546 30.496094 15.980469 C 31.269023 16.354489 31.692532 16.718188 32.035156 17.515625 C 32.108636 17.702639 32.107067 17.771418 32.324219 18.005859 C 32.493268 18.153756 32.647385 18.162836 32.941406 18.123047 C 33.117233 18.065487 33.18988 17.956069 33.269531 17.777344 C 33.572135 16.870527 34.036003 16.485462 34.855469 16.03125 C 35.074417 15.916196 35.141738 15.926818 35.271484 15.78125 C 35.40194 15.561378 35.443694 15.328258 35.271484 15.111328 C 35.188264 15.027698 35.186584 15.028032 34.980469 14.933594 C 34.231858 14.591012 33.754861 14.232217 33.423828 13.464844 C 33.332598 13.241224 33.263469 13.036188 33.136719 12.828125 C 33.014437 12.672522 32.975351 12.651319 32.699219 12.630859 z M 15.582031 21.019531 C 15.258077 21.034407 15.172799 21.122764 15.029297 21.451172 C 14.700733 22.252728 14.36175 22.728202 13.564453 23.078125 C 13.373604 23.150085 13.167143 23.280825 13.068359 23.380859 C 12.858769 23.580873 12.777252 23.732783 12.96875 24.052734 C 13.09709 24.157665 13.067316 24.162281 13.466797 24.396484 C 14.172183 24.751602 14.605759 25.085217 14.896484 25.839844 C 14.968854 26.053752 15.023249 26.209366 15.167969 26.382812 C 15.348493 26.53109 15.477991 26.565483 15.710938 26.558594 C 15.910155 26.531614 16.026224 26.36123 16.126953 26.138672 L 16.191406 25.933594 C 16.439936 25.270414 16.846084 24.805487 17.482422 24.496094 C 17.70855 24.392794 17.906252 24.31576 18.099609 24.15625 C 18.227001 23.989917 18.237618 23.856686 18.232422 23.689453 C 18.199812 23.37387 18.035798 23.353391 17.888672 23.244141 C 16.968872 22.827128 16.562378 22.439738 16.197266 21.550781 C 16.129326 21.384474 16.115077 21.392068 16.005859 21.177734 C 15.904328 21.055575 15.844441 21.032662 15.583984 21.019531 L 15.582031 21.019531 z M 37.015625 21.089844 C 36.784605 21.115554 36.751977 21.14294 36.601562 21.277344 C 36.384297 21.562308 36.180094 21.828612 35.894531 22.046875 C 35.563895 22.275889 35.216098 22.51776 35.224609 22.761719 C 35.257889 22.952742 35.354496 23.05784 35.609375 23.261719 C 35.795979 23.376138 35.938566 23.478599 36.089844 23.638672 C 36.231689 23.808476 36.375254 23.976818 36.519531 24.144531 C 36.757838 24.384039 36.944892 24.499414 37.15625 24.5 C 37.3083 24.47597 37.435134 24.395464 37.617188 24.144531 C 37.809577 23.832728 38.043602 23.650245 38.333984 23.429688 C 38.61591 23.225694 38.791154 23.006923 38.814453 22.800781 C 38.787453 22.583444 38.605035 22.466913 38.572266 22.435547 C 38.175181 22.176316 37.929846 21.882683 37.626953 21.515625 C 37.422829 21.256379 37.333232 21.128968 37.015625 21.089844 z M 6.5488281 27.134766 C 6.3407805 27.134931 6.1318718 27.135365 5.9238281 27.136719 L 5.7304688 27.138672 C 5.2014388 27.142072 4.6851958 27.095891 4.2363281 27.408203 C 4.0352924 27.696605 4.0135016 27.846617 4.0136719 28.189453 L 4.0214844 28.394531 C 4.0234544 28.612403 4.0242269 28.831006 4.0292969 29.048828 C 4.0328669 29.200113 4.0370125 29.350634 4.0390625 29.501953 C 4.0430225 29.851948 4.0471485 30.200842 4.0546875 30.550781 L 4.0625 30.835938 C 3.6707595 30.834138 3.2784591 30.833031 2.8867188 30.832031 C 2.727095 30.831699 2.5678269 30.832285 2.4082031 30.832031 C 2.1724618 30.831031 1.9369174 30.828625 1.7011719 30.828125 L 1.4765625 30.828125 C 1.0287113 30.825625 0.73074132 30.808397 0.3515625 31.068359 C 0.10381398 31.326193 0.10329709 31.325419 0.095703125 32.09375 L 0.099609375 32.40625 C 0.098020377 32.758299 0.095668612 33.110847 0.09765625 33.462891 C 0.099626848 33.787861 0.10039157 34.112526 0.099609375 34.4375 C 0.098420976 35.07421 0.099577392 35.710955 0.1015625 36.347656 C 0.1039455 37.095517 0.10351562 37.843937 0.10351562 38.591797 C 0.10354341 39.923281 0.106091 41.254461 0.109375 42.585938 C 0.112552 43.883478 0.11491238 45.18097 0.11523438 46.478516 L 0.11523438 46.720703 L 0.11523438 46.962891 C 0.11526599 47.123943 0.11523438 47.284268 0.11523438 47.445312 L 0.11523438 47.6875 C 0.115484 48.928387 0.1155995 50.16927 0.1171875 51.410156 C 0.11758362 51.858525 0.11873963 52.305535 0.11914062 52.753906 C 0.11953675 53.472293 0.12145588 54.191768 0.12304688 54.910156 C 0.12383913 55.238576 0.124588 55.566113 0.125 55.894531 C 0.12496027 56.199288 0.1238951 56.503842 0.125 56.808594 L 0.12695312 57.140625 L 0.12695312 57.455078 L 0.12890625 57.738281 C 0.1296985 58.066427 0.1303107 58.158631 0.31640625 58.439453 C 0.63906412 58.708893 0.92012651 58.719402 1.3222656 58.722656 L 1.5605469 58.720703 C 1.8297223 58.721703 2.0980119 58.723709 2.3671875 58.722656 C 2.5646977 58.721909 2.763431 58.720703 2.9609375 58.720703 C 3.4420903 58.721703 3.923144 58.723309 4.4042969 58.722656 C 5.0324006 58.721656 5.6609587 58.721536 6.2890625 58.722656 C 7.3072907 58.724456 8.3255223 58.726163 9.34375 58.726562 L 9.5273438 58.726562 C 10.209577 58.726813 10.891985 58.726599 11.574219 58.726562 C 11.822111 58.726532 12.070474 58.726563 12.318359 58.726562 L 12.503906 58.726562 C 13.526075 58.726481 14.54815 58.726162 15.570312 58.728516 C 16.19997 58.729916 16.829325 58.731669 17.458984 58.730469 C 17.894168 58.729723 18.330439 58.729469 18.765625 58.730469 C 18.967523 58.731215 19.169197 58.732022 19.371094 58.732422 C 19.653187 58.731422 19.934704 58.729169 20.216797 58.730469 L 20.470703 58.732422 C 20.866539 58.728222 21.174434 58.685739 21.496094 58.935547 L 21.621094 59.107422 C 22.245968 59.655909 22.916826 59.979011 23.753906 59.988281 L 23.976562 59.986328 C 24.137324 59.986579 24.296276 59.986498 24.457031 59.986328 C 24.706511 59.983628 24.957536 59.981722 25.207031 59.982422 C 25.371457 59.983168 25.534796 59.982834 25.699219 59.982422 L 25.9375 59.980469 C 26.60273 59.982569 27.161896 59.892589 27.753906 59.574219 L 27.925781 59.453125 C 28.101332 59.333631 28.101146 59.333207 28.279297 59.191406 L 28.447266 58.976562 C 28.751264 58.728217 28.910516 58.723814 29.291016 58.71875 L 29.53125 58.722656 C 29.802638 58.721256 30.072358 58.719003 30.34375 58.720703 C 30.542865 58.721703 30.742287 58.722656 30.941406 58.722656 C 31.426473 58.721256 31.911417 58.719603 32.396484 58.720703 C 33.029707 58.722503 33.663653 58.723856 34.296875 58.722656 C 35.323384 58.720556 36.348493 58.719803 37.375 58.720703 L 37.5625 58.720703 C 37.687118 58.720784 37.812875 58.720621 37.9375 58.720703 L 38.123047 58.720703 L 38.310547 58.720703 C 38.998695 58.72145 39.686855 58.722656 40.375 58.722656 L 40.5625 58.722656 C 41.592979 58.722689 42.623828 58.722157 43.654297 58.720703 C 44.289074 58.719703 44.923813 58.719468 45.558594 58.720703 C 45.997315 58.72145 46.436272 58.720956 46.875 58.720703 C 47.078536 58.720449 47.280838 58.720703 47.484375 58.720703 C 47.76876 58.721703 48.053505 58.722956 48.337891 58.722656 L 48.59375 58.720703 C 48.95725 58.723803 49.290976 58.755011 49.621094 58.589844 C 49.834378 58.3453 49.987066 58.127297 50.033203 57.800781 L 50.033203 57.556641 L 50.035156 57.275391 L 50.033203 56.966797 C 50.034403 56.619541 50.036056 56.273036 50.035156 55.925781 C 50.034363 55.605219 50.034363 55.285405 50.035156 54.964844 C 50.036356 54.336717 50.035863 53.708207 50.035156 53.080078 C 50.034759 52.564563 50.035156 52.048717 50.035156 51.533203 L 50.035156 51.3125 C 50.035229 51.16392 50.035073 51.013816 50.035156 50.865234 C 50.035948 49.471493 50.034569 48.079289 50.033203 46.685547 C 50.032003 45.484977 50.032168 44.282602 50.033203 43.082031 C 50.034403 41.68324 50.035656 40.28551 50.035156 38.886719 C 50.035072 38.737595 50.03524 38.58858 50.035156 38.439453 L 50.035156 38.216797 C 50.034907 37.700743 50.034573 37.18402 50.035156 36.667969 C 50.035947 36.032919 50.036115 35.398716 50.035156 34.763672 C 50.034366 34.439475 50.032493 34.115219 50.033203 33.791016 C 50.033993 33.490455 50.03619 33.189238 50.035156 32.888672 L 50.033203 32.560547 L 50.035156 32.251953 L 50.033203 31.970703 C 50.033037 31.599248 49.966897 31.392143 49.751953 31.087891 C 49.441627 30.822699 49.17191 30.808485 48.78125 30.808594 L 48.566406 30.8125 C 48.338104 30.8135 48.109141 30.815559 47.880859 30.818359 C 47.722245 30.820459 47.564869 30.822919 47.40625 30.824219 C 47.039416 30.826319 46.671496 30.829484 46.304688 30.833984 L 46.005859 30.837891 C 46.009359 30.475274 46.012072 30.11263 46.013672 29.75 C 46.014466 29.60205 46.016678 29.454596 46.017578 29.306641 C 46.019578 29.088471 46.020684 28.868567 46.021484 28.650391 L 46.023438 28.443359 C 46.028137 28.07187 46.052737 27.813105 45.839844 27.492188 C 45.623191 27.333042 45.470109 27.248044 45.203125 27.210938 L 44.962891 27.210938 L 44.6875 27.210938 L 44.392578 27.212891 C 44.183812 27.213224 43.974391 27.214591 43.765625 27.214844 C 43.438422 27.217544 43.112374 27.219903 42.785156 27.220703 C 41.723468 27.222203 40.66268 27.223264 39.603516 27.302734 L 39.347656 27.324219 C 35.408066 27.624157 31.164083 28.538469 27.775391 30.650391 L 27.613281 30.753906 C 26.892868 31.20938 26.188203 31.672826 25.542969 32.232422 C 25.345755 32.409452 25.183118 32.564305 24.941406 32.671875 C 24.780724 32.692145 24.77969 32.691457 24.652344 32.591797 C 23.816304 31.749719 22.826628 31.067856 21.785156 30.509766 C 21.622713 30.424316 21.460043 30.337777 21.298828 30.25 C 18.283877 28.606509 14.74559 27.845255 11.367188 27.443359 L 11.052734 27.408203 C 9.6225812 27.238229 8.2067617 27.137854 6.765625 27.136719 L 6.765625 27.134766 L 6.5488281 27.134766 z M 5.8925781 28.996094 C 9.1157084 28.996094 9.1160683 28.996779 10.636719 29.164062 L 10.939453 29.197266 C 15.190465 29.669308 20.140681 30.712 23.369141 33.763672 L 23.552734 33.894531 C 23.952057 34.232699 24.130151 34.512246 24.1875 35.029297 C 24.22186 35.593393 24.210785 36.15787 24.203125 36.722656 C 24.202874 36.94033 24.202708 37.157323 24.203125 37.375 C 24.203521 37.842654 24.201666 38.311659 24.197266 38.779297 C 24.191266 39.455391 24.190553 40.130523 24.189453 40.806641 C 24.187953 41.903755 24.183001 43.000569 24.175781 44.097656 C 24.168881 45.162958 24.163396 46.229603 24.160156 47.294922 L 24.158203 47.494141 C 24.157409 47.823951 24.15685 48.15261 24.15625 48.482422 C 24.14855 51.215698 24.135901 53.948403 24.119141 56.681641 L 23.929688 56.5625 L 23.681641 56.402344 L 23.435547 56.246094 C 21.05215 54.725721 18.535977 53.896966 15.796875 53.253906 L 15.580078 53.201172 C 12.413362 52.434308 9.1239995 52.47401 5.8925781 52.416016 L 5.8925781 28.996094 z M 44.175781 29.080078 L 44.175781 52.416016 L 40.097656 52.416016 C 39.202133 52.480536 38.323304 52.549971 37.435547 52.667969 L 37.152344 52.705078 C 33.458364 53.195559 29.604436 54.127524 26.498047 56.283203 C 26.291783 56.424432 26.081667 56.553521 25.867188 56.681641 C 25.842408 53.876437 25.821927 51.07287 25.810547 48.267578 C 25.809347 47.936028 25.808441 47.603034 25.806641 47.271484 L 25.806641 47.072266 C 25.801941 46.005001 25.793213 44.938322 25.783203 43.871094 C 25.772963 42.775166 25.765902 41.678006 25.763672 40.582031 C 25.762172 39.906278 25.75897 39.230385 25.75 38.554688 C 25.7435 38.035629 25.742741 37.517139 25.744141 36.998047 C 25.74381 36.78579 25.740528 36.573546 25.736328 36.361328 C 25.703358 34.591687 25.703773 34.592427 26.232422 34.005859 C 26.457393 33.792172 26.695308 33.609645 26.947266 33.429688 C 27.05478 33.345378 27.162922 33.261237 27.269531 33.175781 C 28.996146 31.796592 31.085437 30.874784 33.189453 30.251953 L 33.373047 30.197266 C 36.91998 29.161319 40.488375 29.080078 44.175781 29.080078 z M 34.609375 36.265625 C 34.413037 36.283135 34.245421 36.276499 33.990234 36.894531 C 33.938574 37.021612 33.886631 37.148711 33.833984 37.275391 C 33.749044 37.479511 33.664269 37.684237 33.580078 37.888672 C 33.496978 38.092309 33.414696 38.297001 33.330078 38.5 L 33.248047 38.693359 C 33.199447 38.814354 33.150195 38.934519 33.099609 39.054688 C 32.909245 39.46185 32.685914 39.72284 32.261719 39.890625 L 31.970703 39.962891 C 31.806467 40.004891 31.64132 40.046042 31.476562 40.085938 C 30.672758 40.279321 30.074964 40.522497 29.304688 40.828125 C 29.311587 40.835625 29.033679 40.985966 29.009766 41.181641 C 29.035206 41.297556 29.112857 41.459116 29.283203 41.599609 C 29.677487 41.921431 30.06997 42.245981 30.458984 42.574219 L 30.599609 42.693359 C 30.687989 42.767639 30.777206 42.84131 30.865234 42.916016 L 31.109375 43.132812 C 31.35758 43.306451 31.357475 43.306204 31.525391 43.550781 C 31.557771 44.393772 31.557243 44.39359 31.376953 45.226562 C 31.251323 45.842499 31.09875 46.454635 31.091797 47.085938 C 31.110027 47.397311 31.205513 47.405662 31.300781 47.457031 C 31.589923 47.518851 31.703656 47.52102 31.970703 47.375 L 32.191406 47.230469 L 32.435547 47.080078 C 32.622726 46.963949 32.810046 46.847191 32.998047 46.732422 C 33.10018 46.670182 33.202681 46.609345 33.304688 46.546875 C 33.455806 46.452445 33.607515 46.356254 33.759766 46.263672 L 33.904297 46.175781 C 34.165777 46.006658 34.16713 46.007383 34.439453 45.892578 C 34.742918 45.869698 34.944172 45.855185 35.220703 45.984375 L 35.412109 46.123047 L 35.644531 46.28125 C 35.947159 46.487717 36.255474 46.68532 36.566406 46.878906 L 36.789062 47.015625 C 37.151959 47.248728 37.492446 47.490205 37.935547 47.503906 C 38.186517 47.464366 38.182329 47.441048 38.298828 47.271484 C 38.386058 46.92443 38.339726 46.612997 38.259766 46.253906 C 38.232726 46.137867 38.205487 46.022579 38.179688 45.90625 C 38.138168 45.718621 38.0953 45.531149 38.052734 45.34375 C 38.009784 45.156077 37.967328 44.969248 37.925781 44.78125 L 37.886719 44.601562 C 37.836749 44.389345 37.799302 44.18554 37.767578 43.96875 C 37.792568 43.714064 37.795081 43.536278 37.953125 43.333984 L 38.089844 43.232422 L 38.25 43.105469 C 38.714798 42.749754 39.161672 42.371622 39.607422 41.992188 L 39.859375 41.773438 L 40.087891 41.572266 C 40.28208 41.354773 40.327233 41.254208 40.304688 40.964844 C 40.174677 40.627155 39.870943 40.558977 39.505859 40.466797 L 39.304688 40.419922 C 39.090223 40.365952 38.876943 40.312256 38.662109 40.259766 C 38.368635 40.188586 38.07413 40.11658 37.78125 40.042969 L 37.572266 39.990234 L 37.373047 39.943359 C 36.916326 39.82854 36.579117 39.687375 36.322266 39.265625 L 36.236328 39.064453 L 36.136719 38.835938 C 36.067975 38.672769 35.99845 38.509973 35.927734 38.347656 L 35.818359 38.099609 C 35.657014 37.730042 35.488319 37.364769 35.308594 37.003906 L 35.21875 36.828125 C 35.12563 36.643152 34.967512 36.380706 34.802734 36.302734 L 34.609375 36.265625 z M 10.539062 39.490234 C 10.057087 39.486834 9.6310748 39.834316 9.6445312 40.128906 C 9.6490012 40.407268 9.639853 40.609901 9.8554688 40.822266 C 10.149887 41.100134 10.453139 41.113596 10.814453 41.154297 C 13.606241 41.291499 16.533163 41.80063 19.140625 42.833984 C 19.51605 42.990547 19.75358 43.03127 20.207031 43.015625 C 20.42051 42.993835 20.571953 42.856037 20.673828 42.623047 C 20.804675 42.29406 20.813954 41.969253 20.574219 41.708984 C 19.523439 40.63972 19.774381 40.594535 13.240234 39.742188 L 13.039062 39.712891 C 12.338158 39.611434 11.64003 39.527343 10.931641 39.503906 L 10.730469 39.498047 L 10.539062 39.490234 z M 10.824219 43.849609 C 10.328171 43.860819 9.8845072 43.934433 9.734375 44.136719 C 9.5574016 44.459718 9.5516324 44.644582 9.7304688 44.951172 C 9.9087659 45.170076 10.193612 45.407264 10.541016 45.4375 L 10.802734 45.458984 L 11.095703 45.484375 C 11.365901 45.506725 11.636424 45.532124 11.90625 45.558594 L 12.072266 45.574219 C 14.319128 45.79637 16.635954 46.265341 18.765625 47.027344 C 19.049397 47.135903 19.319932 47.265393 19.625 47.314453 C 19.97158 47.316653 20.244558 47.308152 20.498047 47.058594 C 20.709866 46.731356 20.697003 46.524068 20.623047 46.142578 C 20.568127 45.921358 20.286279 45.746413 19.980469 45.634766 L 19.8125 45.578125 C 17.412333 44.759117 14.903742 44.2943 12.396484 43.958984 L 12.228516 43.9375 C 11.868552 43.88925 11.320266 43.838449 10.824219 43.849609 z " />
</svg>
